<?xml version="1.0" encoding="UTF-8"?>
<svg width="640" height="360" viewBox="0 0 640 360" xmlns="http://www.w3.org/2000/svg">
  <rect width="640" height="360" rx="28" fill="#e0f2fe" />
  <g transform="translate(60,60)">
    <rect x="0" y="0" width="160" height="220" rx="20" fill="#f8fafc" stroke="#60a5fa" stroke-width="4" />
    <text x="80" y="44" text-anchor="middle" font-family="'Noto Sans JP',sans-serif" font-size="20" fill="#2563eb">ブリッジ</text>
    <g transform="translate(20,70)" stroke="#0ea5e9" stroke-width="6" fill="none" stroke-linecap="round">
      <path d="M10 90c50-120 100-120 140 0" />
      <path d="M28 60c12-22 32-36 52-36 20 0 40 14 52 36" />
      <path d="M34 114c42-58 68-58 110 0" />
    </g>
  </g>
  <g transform="translate(240,60)">
    <rect x="0" y="0" width="160" height="220" rx="20" fill="#f8fafc" stroke="#fb923c" stroke-width="4" />
    <text x="80" y="44" text-anchor="middle" font-family="'Noto Sans JP',sans-serif" font-size="20" fill="#f97316">インプラント</text>
    <g transform="translate(50,70)">
      <rect x="0" y="0" width="60" height="110" rx="24" fill="#fde68a" stroke="#f59e0b" stroke-width="4" />
      <rect x="18" y="110" width="24" height="40" rx="6" fill="#facc15" />
      <rect x="18" y="150" width="24" height="30" rx="12" fill="#f97316" opacity="0.6" />
    </g>
  </g>
  <g transform="translate(420,60)">
    <rect x="0" y="0" width="160" height="220" rx="20" fill="#f8fafc" stroke="#34d399" stroke-width="4" />
    <text x="80" y="44" text-anchor="middle" font-family="'Noto Sans JP',sans-serif" font-size="20" fill="#0f766e">入れ歯</text>
    <g transform="translate(24,82)">
      <path d="M12 40c40-52 80-52 120 0" fill="#fbcfe8" stroke="#ec4899" stroke-width="4" />
      <rect x="12" y="40" width="120" height="40" rx="20" fill="#fee2e2" stroke="#fb7185" stroke-width="4" />
      <circle cx="24" cy="60" r="12" fill="#fff" />
      <circle cx="52" cy="60" r="12" fill="#fff" />
      <circle cx="80" cy="60" r="12" fill="#fff" />
      <circle cx="108" cy="60" r="12" fill="#fff" />
    </g>
  </g>
  <text x="320" y="314" font-family="'Noto Sans JP',sans-serif" font-size="24" text-anchor="middle" fill="#1f2937">補綴治療オプション比較</text>
</svg>
