<?xml version="1.0" encoding="UTF-8"?>
<svg width="640" height="360" viewBox="0 0 640 360" xmlns="http://www.w3.org/2000/svg">
  <rect width="640" height="360" rx="28" fill="#fdf2f8" />
  <g transform="translate(80,60)">
    <path d="M40 140c0-60 40-110 100-110s100 50 100 110c0 40-28 70-100 70s-100-30-100-70z" fill="#fff" stroke="#f472b6" stroke-width="5" />
    <path d="M80 120c8-26 30-42 60-42 30 0 52 16 60 42" fill="none" stroke="#ec4899" stroke-width="6" stroke-linecap="round" />
    <g transform="translate(36,150)" fill="#fde68a" stroke="#fbbf24" stroke-width="4">
      <path d="M12 0h56c8 0 14 6 14 14v32c0 8-6 14-14 14H12c-6 0-12-6-12-14V14C0 6 6 0 12 0z" />
      <path d="M98 0h56c8 0 14 6 14 14v32c0 8-6 14-14 14H98c-6 0-12-6-12-14V14c0-8 6-14 12-14z" />
    </g>
  </g>
  <text x="320" y="300" font-family="'Noto Sans JP',sans-serif" font-size="26" text-anchor="middle" fill="#be185d">ブリッジの模式図</text>
</svg>
