<?xml version="1.0" encoding="UTF-8"?>
<svg width="640" height="360" viewBox="0 0 640 360" xmlns="http://www.w3.org/2000/svg">
  <defs>
    <linearGradient id="grad1" x1="0%" y1="0%" x2="100%" y2="100%">
      <stop offset="0%" stop-color="#fef3c7" />
      <stop offset="100%" stop-color="#fbcfe8" />
    </linearGradient>
  </defs>
  <rect x="0" y="0" width="640" height="360" rx="28" fill="url(#grad1)" />
  <g transform="translate(120,80)">
    <path d="M120 40c-30 0-56 26-56 64 0 44 34 88 56 136 22-48 56-92 56-136 0-38-26-64-56-64z" fill="#fff7ed" stroke="#fb923c" stroke-width="4" />
    <circle cx="104" cy="120" r="18" fill="#fb7185" opacity="0.8" />
    <circle cx="140" cy="94" r="14" fill="#f97316" opacity="0.6" />
    <path d="M110 176c6-10 22-18 36-8" stroke="#ea580c" stroke-width="5" stroke-linecap="round" fill="none" />
  </g>
  <g transform="translate(360,110)">
    <path d="M48 0c-20 0-48 22-48 54 0 38 34 62 48 94 14-32 48-56 48-94 0-32-28-54-48-54z" fill="#f8fafc" stroke="#38bdf8" stroke-width="4" />
    <circle cx="34" cy="94" r="12" fill="#fb7185" opacity="0.75" />
    <rect x="28" y="120" width="40" height="12" rx="6" fill="#0ea5e9" opacity="0.4" />
  </g>
  <text x="320" y="270" font-family="'Noto Sans JP', sans-serif" font-size="32" text-anchor="middle" fill="#1f2937">虫歯と歯周病</text>
  <text x="320" y="308" font-family="'Noto Sans JP', sans-serif" font-size="20" text-anchor="middle" fill="#6b7280">感染部位と骨吸収のイメージ</text>
</svg>
