<?xml version="1.0" encoding="UTF-8"?>
<svg width="640" height="360" viewBox="0 0 640 360" xmlns="http://www.w3.org/2000/svg">
  <rect width="640" height="360" rx="28" fill="#fee2e2" />
  <g transform="translate(120,70)">
    <path d="M140 0c-52 0-108 60-108 138 0 70 48 108 108 108s108-38 108-108C248 60 192 0 140 0z" fill="#fff" stroke="#ef4444" stroke-width="6" />
    <path d="M120 120c18-46 44-46 62 0" fill="#fee2e2" stroke="#f87171" stroke-width="6" stroke-linecap="round" />
    <path d="M132 160c10-18 30-18 40 0" fill="none" stroke="#ef4444" stroke-width="5" stroke-linecap="round" />
    <path d="M118 110c-10-40 16-70 22-70 12 0 40 20 50 50" fill="none" stroke="#f97316" stroke-width="5" stroke-linecap="round" />
  </g>
  <text x="320" y="300" font-family="'Noto Sans JP',sans-serif" font-size="26" text-anchor="middle" fill="#b91c1c">う蝕処置イメージ</text>
</svg>
