<?xml version="1.0" encoding="UTF-8"?>
<svg width="640" height="360" viewBox="0 0 640 360" xmlns="http://www.w3.org/2000/svg">
  <rect width="640" height="360" rx="28" fill="#f8fafc" />
  <g transform="translate(60,100)">
    <path d="M40 120c0-72 52-120 120-120s120 48 120 120c0 54-40 96-120 96S40 174 40 120z" fill="#fff" stroke="#94a3b8" stroke-width="5" />
    <path d="M80 120c10-34 36-54 80-54 44 0 70 20 80 54" fill="none" stroke="#38bdf8" stroke-width="6" stroke-linecap="round" />
    <path d="M96 170c12-20 32-20 44 0" fill="none" stroke="#cbd5f5" stroke-width="6" stroke-linecap="round" />
    <path d="M160 170c12-20 32-20 44 0" fill="none" stroke="#cbd5f5" stroke-width="6" stroke-linecap="round" />
  </g>
  <text x="320" y="300" font-family="'Noto Sans JP',sans-serif" font-size="26" text-anchor="middle" fill="#1d4ed8">セラミック歯列</text>
</svg>
