<?xml version="1.0" encoding="UTF-8"?>
<svg width="640" height="360" viewBox="0 0 640 360" xmlns="http://www.w3.org/2000/svg">
  <rect width="640" height="360" rx="28" fill="#f3e8ff" />
  <g transform="translate(80,80)">
    <path d="M40 120c0-66 42-120 120-120s120 54 120 120-42 108-120 108S40 186 40 120z" fill="#fff" stroke="#a855f7" stroke-width="5" />
    <path d="M90 120c10-32 36-48 70-48 34 0 60 16 70 48" fill="none" stroke="#c084fc" stroke-width="6" stroke-linecap="round" />
    <g transform="translate(70,150)" fill="#ede9fe" stroke="#8b5cf6" stroke-width="4">
      <rect x="0" y="0" width="60" height="46" rx="16" />
      <rect x="80" y="0" width="60" height="46" rx="16" />
      <rect x="160" y="0" width="60" height="46" rx="16" />
    </g>
  </g>
  <text x="320" y="298" font-family="'Noto Sans JP',sans-serif" font-size="26" text-anchor="middle" fill="#7e22ce">e.max press イメージ</text>
</svg>
