<?xml version="1.0" encoding="UTF-8"?>
<svg width="640" height="360" viewBox="0 0 640 360" xmlns="http://www.w3.org/2000/svg">
  <rect width="640" height="360" rx="28" fill="#fee2f2" />
  <g transform="translate(80,80)">
    <path d="M40 140c0-72 52-128 120-128s120 56 120 128c0 60-44 108-120 108S40 200 40 140z" fill="#fff" stroke="#f472b6" stroke-width="6" />
    <path d="M80 160c10-20 36-36 60-36 24 0 50 16 60 36" fill="none" stroke="#ec4899" stroke-width="6" stroke-linecap="round" />
    <path d="M88 200c12-18 32-18 44 0" fill="none" stroke="#fb7185" stroke-width="5" stroke-linecap="round" />
    <path d="M156 200c12-18 32-18 44 0" fill="none" stroke="#fb7185" stroke-width="5" stroke-linecap="round" />
    <rect x="68" y="210" width="184" height="44" rx="22" fill="#fbcfe8" stroke="#ec4899" stroke-width="4" />
  </g>
  <text x="320" y="300" font-family="'Noto Sans JP',sans-serif" font-size="26" text-anchor="middle" fill="#be185d">総義歯イメージ</text>
</svg>
